<?xml version="1.0" encoding="utf-8"?>
<!-- Generator: Adobe Illustrator 19.0.0, SVG Export Plug-In . SVG Version: 6.00 Build 0)  -->
<svg version="1.1" id="account" xmlns="http://www.w3.org/2000/svg" xmlns:xlink="http://www.w3.org/1999/xlink" x="0px" y="0px"
	 viewBox="-18 68.2 573.8 657.8" style="enable-background:new -18 68.2 573.8 657.8;" xml:space="preserve">
<style type="text/css">
	.st0{fill:#999999;}
</style>
<path class="st0" d="M372.1,450.7c61.2-34.4,99.5-99.4,99.5-175.9c0-114.8-88-206.6-198.9-206.6S69.9,163.8,69.9,274.7
	c0,76.5,42.1,141.5,99.4,176C58.5,492.7-18,599.8-18,726h49.7c0-133.9,107.1-244.8,237.1-244.8S506,592.1,506,726h49.7
	C559.5,599.8,479.2,492.7,372.1,450.7L372.1,450.7z M119.7,274.7c0-84.1,68.8-156.8,149.2-156.8s149.2,68.9,149.2,156.8
	s-65,156.8-145.4,156.8S119.7,358.9,119.7,274.7L119.7,274.7z"/>
</svg>
