<?xml version="1.0" encoding="UTF-8"?>
<svg width="700pt" height="700pt" version="1.1" viewBox="0 0 700 700" xmlns="http://www.w3.org/2000/svg" xmlns:xlink="http://www.w3.org/1999/xlink">
 <defs>
  <symbol id="u" overflow="visible">
   <path d="m10.141-0.60938c-0.52344 0.27344-1.0703 0.47656-1.6406 0.60938-0.5625 0.14453-1.1523 0.21875-1.7656 0.21875-1.8359 0-3.293-0.51562-4.375-1.5469-1.0742-1.0312-1.6094-2.4219-1.6094-4.1719 0-1.7695 0.53516-3.1641 1.6094-4.1875 1.082-1.0312 2.5391-1.5469 4.375-1.5469 0.61328 0 1.2031 0.070313 1.7656 0.20312 0.57031 0.13672 1.1172 0.33984 1.6406 0.60938v2.2969c-0.52344-0.36328-1.043-0.62891-1.5625-0.79688-0.51172-0.16406-1.0469-0.25-1.6094-0.25-1.0234 0-1.8242 0.32812-2.4062 0.98438-0.57422 0.64844-0.85938 1.543-0.85938 2.6875 0 1.1367 0.28516 2.0312 0.85938 2.6875 0.58203 0.64844 1.3828 0.96875 2.4062 0.96875 0.5625 0 1.0977-0.082031 1.6094-0.25 0.51953-0.16406 1.0391-0.42969 1.5625-0.79688z"/>
  </symbol>
  <symbol id="b" overflow="visible">
   <path d="m7.4219-6.0312c-0.23047-0.10156-0.46094-0.17969-0.6875-0.23438-0.23047-0.050781-0.46094-0.078125-0.6875-0.078125-0.6875 0-1.2148 0.21875-1.5781 0.65625-0.36719 0.4375-0.54688 1.0625-0.54688 1.875v3.8125h-2.6562v-8.2812h2.6562v1.3594c0.33203-0.53906 0.71875-0.9375 1.1562-1.1875 0.44531-0.25 0.97656-0.375 1.5938-0.375 0.09375 0 0.19141 0.007813 0.29688 0.015625 0.10156 0.011719 0.25391 0.027344 0.45312 0.046875z"/>
  </symbol>
  <symbol id="a" overflow="visible">
   <path d="m9.5312-4.1562v0.75h-6.1875c0.0625 0.61719 0.28516 1.0781 0.67188 1.3906 0.38281 0.3125 0.92578 0.46875 1.625 0.46875 0.55078 0 1.1172-0.082031 1.7031-0.25 0.58203-0.16406 1.1797-0.41406 1.7969-0.75v2.0469c-0.625 0.24219-1.25 0.41797-1.875 0.53125-0.625 0.125-1.25 0.1875-1.875 0.1875-1.5 0-2.668-0.37891-3.5-1.1406-0.82422-0.75781-1.2344-1.8281-1.2344-3.2031 0-1.3516 0.40625-2.4141 1.2188-3.1875 0.8125-0.78125 1.9297-1.1719 3.3594-1.1719 1.3008 0 2.3438 0.39844 3.125 1.1875 0.78125 0.78125 1.1719 1.8281 1.1719 3.1406zm-2.7188-0.89062c0-0.5-0.14844-0.89844-0.4375-1.2031-0.29297-0.3125-0.67188-0.46875-1.1406-0.46875-0.52344 0-0.94531 0.14844-1.2656 0.4375-0.3125 0.28125-0.51172 0.69531-0.59375 1.2344z"/>
  </symbol>
  <symbol id="e" overflow="visible">
   <path d="m4.9844-3.7188c-0.55469 0-0.96875 0.09375-1.25 0.28125-0.28125 0.17969-0.42188 0.45312-0.42188 0.82812 0 0.33594 0.10938 0.59375 0.32812 0.78125 0.22656 0.1875 0.54688 0.28125 0.95312 0.28125 0.5 0 0.91406-0.17578 1.25-0.53125 0.34375-0.35156 0.51562-0.80078 0.51562-1.3438v-0.29688zm4.0469-1v4.7188h-2.6719v-1.2344c-0.35547 0.51172-0.75781 0.88281-1.2031 1.1094-0.4375 0.22656-0.97656 0.34375-1.6094 0.34375-0.86719 0-1.5625-0.25-2.0938-0.75s-0.79688-1.1484-0.79688-1.9531c0-0.96875 0.33203-1.6758 1-2.125 0.66406-0.45703 1.7109-0.6875 3.1406-0.6875h1.5625v-0.20312c0-0.42578-0.16797-0.73438-0.5-0.92188-0.32422-0.19531-0.83984-0.29688-1.5469-0.29688-0.5625 0-1.0898 0.058594-1.5781 0.17188-0.49219 0.11719-0.94531 0.28125-1.3594 0.5v-2.0156c0.5625-0.13281 1.1289-0.23828 1.7031-0.3125 0.57031-0.070312 1.1445-0.10938 1.7188-0.10938 1.4883 0 2.5664 0.29688 3.2344 0.89062 0.66406 0.58594 1 1.543 1 2.875z"/>
  </symbol>
  <symbol id="d" overflow="visible">
   <path d="m4.1562-10.625v2.3438h2.7344v1.8906h-2.7344v3.5156c0 0.38672 0.078125 0.64844 0.23438 0.78125 0.15625 0.13672 0.45703 0.20312 0.90625 0.20312h1.3594v1.8906h-2.2656c-1.043 0-1.7812-0.21875-2.2188-0.65625s-0.65625-1.1758-0.65625-2.2188v-3.5156h-1.3125v-1.8906h1.3125v-2.3438z"/>
  </symbol>
  <symbol id="h" overflow="visible">
   <path d="m6.9062-7.0625v-4.4375h2.6562v11.5h-2.6562v-1.2031c-0.36719 0.49219-0.76562 0.85156-1.2031 1.0781s-0.94922 0.34375-1.5312 0.34375c-1.0234 0-1.8594-0.40625-2.5156-1.2188-0.64844-0.8125-0.96875-1.8516-0.96875-3.125 0-1.2812 0.32031-2.3281 0.96875-3.1406 0.65625-0.8125 1.4922-1.2188 2.5156-1.2188 0.57031 0 1.0781 0.11719 1.5156 0.34375 0.44531 0.23047 0.85156 0.58984 1.2188 1.0781zm-1.75 5.3594c0.57031 0 1.0039-0.20703 1.2969-0.625 0.30078-0.41406 0.45312-1.0156 0.45312-1.7969 0-0.78906-0.15234-1.3945-0.45312-1.8125-0.29297-0.41406-0.72656-0.625-1.2969-0.625-0.5625 0-0.99609 0.21094-1.2969 0.625-0.29297 0.41797-0.4375 1.0234-0.4375 1.8125 0 0.78125 0.14453 1.3828 0.4375 1.7969 0.30078 0.41797 0.73438 0.625 1.2969 0.625z"/>
  </symbol>
  <symbol id="k" overflow="visible">
   <path d="m5.6719-1.7031c0.57031 0 1.0039-0.20703 1.2969-0.625 0.30078-0.41406 0.45312-1.0156 0.45312-1.7969 0-0.78906-0.15234-1.3945-0.45312-1.8125-0.29297-0.41406-0.72656-0.625-1.2969-0.625-0.5625 0-0.99609 0.21094-1.2969 0.625-0.30469 0.41797-0.45312 1.0234-0.45312 1.8125 0 0.78125 0.14844 1.3828 0.45312 1.7969 0.30078 0.41797 0.73438 0.625 1.2969 0.625zm-1.75-5.3594c0.36328-0.48828 0.76562-0.84766 1.2031-1.0781 0.44531-0.22656 0.95703-0.34375 1.5312-0.34375 1.0195 0 1.8594 0.40625 2.5156 1.2188s0.98438 1.8594 0.98438 3.1406c0 1.2734-0.32812 2.3125-0.98438 3.125s-1.4961 1.2188-2.5156 1.2188c-0.57422 0-1.0859-0.11719-1.5312-0.34375-0.4375-0.22656-0.83984-0.58594-1.2031-1.0781v1.2031h-2.6562v-11.5h2.6562z"/>
  </symbol>
  <symbol id="g" overflow="visible">
   <path d="m0.1875-8.2812h2.6406l2.2344 5.625 1.8906-5.625h2.6406l-3.4844 9.0625c-0.34375 0.92578-0.75 1.5703-1.2188 1.9375-0.46875 0.36328-1.0859 0.54688-1.8438 0.54688h-1.5312v-1.7344h0.82812c0.44531 0 0.76953-0.074219 0.96875-0.21875 0.20703-0.14844 0.36719-0.40234 0.48438-0.76562l0.078125-0.23438z"/>
  </symbol>
  <symbol id="f" overflow="visible">
   <path d="m1.2656-8.2812h2.6562v8.2812h-2.6562zm0-3.2188h2.6562v2.1562h-2.6562z"/>
  </symbol>
  <symbol id="t" overflow="visible">
   <path d="m1.2656-11.5h2.6562v11.5h-2.6562z"/>
  </symbol>
  <symbol id="c" overflow="visible">
   <path d="m5.2188-6.5938c-0.59375 0-1.0469 0.21484-1.3594 0.64062-0.30469 0.41797-0.45312 1.0273-0.45312 1.8281 0 0.79297 0.14844 1.4023 0.45312 1.8281 0.3125 0.41797 0.76562 0.625 1.3594 0.625 0.57031 0 1.0078-0.20703 1.3125-0.625 0.3125-0.42578 0.46875-1.0352 0.46875-1.8281 0-0.80078-0.15625-1.4102-0.46875-1.8281-0.30469-0.42578-0.74219-0.64062-1.3125-0.64062zm0-1.8906c1.4141 0 2.5234 0.38672 3.3281 1.1562 0.80078 0.77344 1.2031 1.8398 1.2031 3.2031 0 1.3555-0.40234 2.418-1.2031 3.1875-0.80469 0.77344-1.9141 1.1562-3.3281 1.1562-1.4375 0-2.5586-0.38281-3.3594-1.1562-0.80469-0.76953-1.2031-1.832-1.2031-3.1875 0-1.3633 0.39844-2.4297 1.2031-3.2031 0.80078-0.76953 1.9219-1.1562 3.3594-1.1562z"/>
  </symbol>
  <symbol id="s" overflow="visible">
   <path d="m6.9062-1.4062c-0.36719 0.48047-0.76562 0.83594-1.2031 1.0625-0.4375 0.23047-0.94922 0.34375-1.5312 0.34375-1.0117 0-1.8438-0.39453-2.5-1.1875-0.65625-0.80078-0.98438-1.8164-0.98438-3.0469 0-1.2383 0.32812-2.2539 0.98438-3.0469 0.65625-0.78906 1.4883-1.1875 2.5-1.1875 0.58203 0 1.0938 0.11719 1.5312 0.34375 0.4375 0.23047 0.83594 0.58984 1.2031 1.0781v-1.2344h2.6562v7.4531c0 1.3203-0.42188 2.332-1.2656 3.0312-0.83594 0.70703-2.0469 1.0625-3.6406 1.0625-0.52344 0-1.0273-0.042969-1.5156-0.125-0.48047-0.074219-0.96484-0.19531-1.4531-0.35938v-2.0625c0.46875 0.26953 0.92188 0.46875 1.3594 0.59375 0.44531 0.13281 0.89453 0.20312 1.3438 0.20312 0.86328 0 1.5-0.19531 1.9062-0.57812 0.40625-0.375 0.60938-0.96094 0.60938-1.7656zm-1.75-5.1562c-0.54297 0-0.96875 0.20312-1.2812 0.60938-0.30469 0.40625-0.45312 0.98047-0.45312 1.7188 0 0.76172 0.14453 1.3398 0.4375 1.7344 0.30078 0.38672 0.73438 0.57812 1.2969 0.57812 0.55078 0 0.97656-0.20312 1.2812-0.60938 0.3125-0.40625 0.46875-0.97266 0.46875-1.7031 0-0.73828-0.15625-1.3125-0.46875-1.7188-0.30469-0.40625-0.73047-0.60938-1.2812-0.60938z"/>
  </symbol>
  <symbol id="j" overflow="visible">
   <path d="m9.5938-5.0469v5.0469h-2.6562v-3.8594c0-0.71875-0.015625-1.2109-0.046875-1.4844-0.03125-0.26953-0.089844-0.46875-0.17188-0.59375-0.10547-0.16406-0.24609-0.29688-0.42188-0.39062-0.17969-0.10156-0.38281-0.15625-0.60938-0.15625-0.55469 0-0.98438 0.21484-1.2969 0.64062-0.3125 0.42969-0.46875 1.0156-0.46875 1.7656v4.0781h-2.6562v-8.2812h2.6562v1.2188c0.39453-0.48828 0.81641-0.84766 1.2656-1.0781 0.44531-0.22656 0.94141-0.34375 1.4844-0.34375 0.95703 0 1.6797 0.29688 2.1719 0.89062 0.5 0.58594 0.75 1.4336 0.75 2.5469z"/>
  </symbol>
  <symbol id="i" overflow="visible">
   <path d="m7.9688-8.0156v2.1562c-0.36719-0.25-0.73047-0.42969-1.0938-0.54688-0.36719-0.125-0.74219-0.1875-1.125-0.1875-0.74219 0-1.3203 0.21875-1.7344 0.65625-0.40625 0.42969-0.60938 1.0312-0.60938 1.8125 0 0.77344 0.20312 1.375 0.60938 1.8125 0.41406 0.42969 0.99219 0.64062 1.7344 0.64062 0.41406 0 0.80469-0.0625 1.1719-0.1875 0.375-0.125 0.72266-0.30469 1.0469-0.54688v2.1562c-0.41797 0.15625-0.83984 0.26953-1.2656 0.34375-0.42969 0.082031-0.85547 0.125-1.2812 0.125-1.5 0-2.6719-0.37891-3.5156-1.1406-0.83594-0.76953-1.25-1.8359-1.25-3.2031 0-1.375 0.41406-2.4414 1.25-3.2031 0.84375-0.76953 2.0156-1.1562 3.5156-1.1562 0.42578 0 0.84766 0.042969 1.2656 0.125 0.42578 0.074219 0.85156 0.1875 1.2812 0.34375z"/>
  </symbol>
  <symbol id="r" overflow="visible">
   <path d="m6.7188-11.5v1.7344h-1.4688c-0.375 0-0.63672 0.070313-0.78125 0.20312-0.14844 0.13672-0.21875 0.37109-0.21875 0.70312v0.57812h2.2656v1.8906h-2.2656v6.3906h-2.6406v-6.3906h-1.3281v-1.8906h1.3281v-0.57812c0-0.89453 0.25-1.5547 0.75-1.9844 0.5-0.4375 1.2734-0.65625 2.3281-0.65625z"/>
  </symbol>
  <symbol id="q" overflow="visible">
   <path d="m8.9531-6.9062c0.33203-0.50781 0.72656-0.89844 1.1875-1.1719 0.45703-0.26953 0.96094-0.40625 1.5156-0.40625 0.94531 0 1.6719 0.29688 2.1719 0.89062 0.5 0.58594 0.75 1.4336 0.75 2.5469v5.0469h-2.6562v-4.3125-0.20312c0.007813-0.070313 0.015625-0.17188 0.015625-0.29688 0-0.58203-0.089844-1.0039-0.26562-1.2656-0.16797-0.26953-0.44531-0.40625-0.82812-0.40625-0.51172 0-0.90234 0.21094-1.1719 0.625-0.27344 0.41797-0.41406 1.0156-0.42188 1.7969v4.0625h-2.6562v-4.3125c0-0.91406-0.085938-1.5039-0.25-1.7656-0.15625-0.26953-0.4375-0.40625-0.84375-0.40625-0.5 0-0.89062 0.21094-1.1719 0.625-0.27344 0.41797-0.40625 1.0117-0.40625 1.7812v4.0781h-2.6719v-8.2812h2.6719v1.2188c0.32031-0.46875 0.69141-0.82031 1.1094-1.0625 0.42578-0.23828 0.89453-0.35938 1.4062-0.35938 0.57031 0 1.0781 0.14062 1.5156 0.42188 0.4375 0.27344 0.76953 0.65625 1 1.1562z"/>
  </symbol>
  <symbol id="p" overflow="visible">
   <path d="m9.5938-5.0469v5.0469h-2.6562v-3.8438c0-0.72656-0.015625-1.2266-0.046875-1.5-0.03125-0.26953-0.089844-0.46875-0.17188-0.59375-0.10547-0.16406-0.24609-0.29688-0.42188-0.39062-0.17969-0.10156-0.38281-0.15625-0.60938-0.15625-0.55469 0-0.98438 0.21484-1.2969 0.64062-0.3125 0.42969-0.46875 1.0156-0.46875 1.7656v4.0781h-2.6562v-11.5h2.6562v4.4375c0.39453-0.48828 0.81641-0.84766 1.2656-1.0781 0.44531-0.22656 0.94141-0.34375 1.4844-0.34375 0.95703 0 1.6797 0.29688 2.1719 0.89062 0.5 0.58594 0.75 1.4336 0.75 2.5469z"/>
  </symbol>
  <symbol id="o" overflow="visible">
   <path d="m1.3906-11.031h3.1719l4.0156 7.5625v-7.5625h2.7031v11.031h-3.1719l-4.0156-7.5781v7.5781h-2.7031z"/>
  </symbol>
  <symbol id="n" overflow="visible">
   <path d="m1.1875-3.2188v-5.0625h2.6562v0.82812c0 0.44922-0.007812 1.0117-0.015625 1.6875v1.3594c0 0.66797 0.015625 1.1484 0.046875 1.4375 0.039062 0.29297 0.10156 0.50781 0.1875 0.64062 0.10156 0.17969 0.24219 0.3125 0.42188 0.40625 0.17578 0.085937 0.37891 0.125 0.60938 0.125 0.55078 0 0.98438-0.20703 1.2969-0.625 0.3125-0.42578 0.46875-1.0156 0.46875-1.7656v-4.0938h2.6406v8.2812h-2.6406v-1.2031c-0.39844 0.49219-0.82031 0.85156-1.2656 1.0781-0.44922 0.22656-0.9375 0.34375-1.4688 0.34375-0.96094 0-1.6875-0.28906-2.1875-0.875-0.5-0.59375-0.75-1.4453-0.75-2.5625z"/>
  </symbol>
  <symbol id="m" overflow="visible">
   <path d="m1.3906-11.031h4.7188c1.4062 0 2.4844 0.3125 3.2344 0.9375 0.75 0.61719 1.125 1.5 1.125 2.6562s-0.375 2.0469-1.125 2.6719-1.8281 0.9375-3.2344 0.9375h-1.875v3.8281h-2.8438zm2.8438 2.0625v3.0781h1.5781c0.55078 0 0.97656-0.13281 1.2812-0.40625 0.30078-0.26953 0.45312-0.64844 0.45312-1.1406 0-0.48828-0.15234-0.86328-0.45312-1.125-0.30469-0.26953-0.73047-0.40625-1.2812-0.40625z"/>
  </symbol>
  <symbol id="l" overflow="visible">
   <path d="m1.2656-8.2812h2.6562v8.1406c0 1.1016-0.26562 1.9453-0.79688 2.5312-0.53125 0.58203-1.3047 0.875-2.3125 0.875h-1.3125v-1.7344h0.45312c0.5 0 0.84375-0.11719 1.0312-0.34375 0.1875-0.23047 0.28125-0.67188 0.28125-1.3281zm0-3.2188h2.6562v2.1562h-2.6562z"/>
  </symbol>
 </defs>
 <g>
  <path d="m400.96 363.88 6.1797 6.6562 97.555-90.535-97.555-90.535-6.1797 6.6562 85.488 79.34h-291.14v9.082h291.14z"/>
  <use x="70" y="605.40625" xlink:href="#u"/>
  <use x="81.109375" y="605.40625" xlink:href="#b"/>
  <use x="88.570312" y="605.40625" xlink:href="#a"/>
  <use x="98.835937" y="605.40625" xlink:href="#e"/>
  <use x="109.050781" y="605.40625" xlink:href="#d"/>
  <use x="116.285156" y="605.40625" xlink:href="#a"/>
  <use x="126.550781" y="605.40625" xlink:href="#h"/>
  <use x="142.652344" y="605.40625" xlink:href="#k"/>
  <use x="153.488281" y="605.40625" xlink:href="#g"/>
  <use x="168.621094" y="605.40625" xlink:href="#h"/>
  <use x="179.457031" y="605.40625" xlink:href="#f"/>
  <use x="184.644531" y="605.40625" xlink:href="#t"/>
  <use x="189.832031" y="605.40625" xlink:href="#e"/>
  <use x="200.046875" y="605.40625" xlink:href="#g"/>
  <use x="209.910156" y="605.40625" xlink:href="#c"/>
  <use x="220.308594" y="605.40625" xlink:href="#b"/>
  <use x="227.773438" y="605.40625" xlink:href="#s"/>
  <use x="238.609375" y="605.40625" xlink:href="#e"/>
  <use x="248.820313" y="605.40625" xlink:href="#j"/>
  <use x="259.59375" y="605.40625" xlink:href="#i"/>
  <use x="268.566406" y="605.40625" xlink:href="#f"/>
  <use x="70" y="620.539062" xlink:href="#r"/>
  <use x="76.585938" y="620.539062" xlink:href="#b"/>
  <use x="84.046875" y="620.539062" xlink:href="#c"/>
  <use x="94.445312" y="620.539062" xlink:href="#q"/>
  <use x="115.488281" y="620.539062" xlink:href="#d"/>
  <use x="122.722656" y="620.539062" xlink:href="#p"/>
  <use x="133.496094" y="620.539062" xlink:href="#a"/>
  <use x="149.03125" y="620.539062" xlink:href="#o"/>
  <use x="161.699219" y="620.539062" xlink:href="#c"/>
  <use x="172.09375" y="620.539062" xlink:href="#n"/>
  <use x="182.871094" y="620.539062" xlink:href="#j"/>
  <use x="198.914062" y="620.539062" xlink:href="#m"/>
  <use x="210.007812" y="620.539062" xlink:href="#b"/>
  <use x="217.472656" y="620.539062" xlink:href="#c"/>
  <use x="227.871094" y="620.539062" xlink:href="#l"/>
  <use x="233.058594" y="620.539062" xlink:href="#a"/>
  <use x="243.324219" y="620.539062" xlink:href="#i"/>
  <use x="252.292969" y="620.539062" xlink:href="#d"/>
 </g>
</svg>
